{"title":"The Amazing World of Gumball - 101 [The Responsible - The Myster","uid":6443712,"size":183541760,"categoryP":"video","categoryS":"tv_shows","magnet":"?xt=urn:btih:e5ffba2cf16103bbb504f1d86d4220c8284bd586&amp;dn=The+Amazing+World+of+Gumball+-+101+%5BThe+Responsible+-+The+Myster&amp;tr=udp%3A%2F%2Ftracker.openbittorrent.com%3A80&amp;tr=udp%3A%2F%2Fopen.demonii.com%3A1337&amp;tr=udp%3A%2F%2Ftracker.coppersurfer.tk%3A6969&amp;tr=udp%3A%2F%2Fexodus.desync.com%3A6969","seeders":0,"leechers":0,"uploader":"Jubileeeeee","files":1,"time":1307057899,"description":" &lt;a href=&quot;http://www.imdb.com/title/tt1942683/&quot; rel=&quot;nofollow&quot; target=&quot;_NEW&quot;&gt;http://www.imdb.com/title/tt1942683/&lt;/a&gt;\n\n\nSome video metadata:\n\nInput #0, avi, from 'The Amazing World of Gumball - 101 [The Responsible - The Mystery].avi':\n  Metadata:\n    encoder         : VirtualDubMod 1.5.4.1 (build 2178/release)\n  Duration: 00:23:03.36, start: 0.000000, bitrate: 1061 kb/s\n    Stream #0.0: Video: mpeg4, yuv420p, 640x480 [PAR 1:1 DAR 4:3], 25 tbr, 25 tbn, 25 tbc\n    Stream #0.1: Audio: mp3, 48000 Hz, stereo, s16, 116 kb/s\n","torrent":{"xt":"urn:btih:e5ffba2cf16103bbb504f1d86d4220c8284bd586","amp;dn":"The+Amazing+World+of+Gumball+-+101+%5BThe+Responsible+-+The+Myster","amp;tr":["udp%3A%2F%2Ftracker.openbittorrent.com%3A80","udp%3A%2F%2Fopen.demonii.com%3A1337","udp%3A%2F%2Ftracker.coppersurfer.tk%3A6969","udp%3A%2F%2Fexodus.desync.com%3A6969"],"infoHash":"e5ffba2cf16103bbb504f1d86d4220c8284bd586","infoHashBuffer":{"type":"Buffer","data":[229,255,186,44,241,97,3,187,181,4,241,216,109,66,32,200,40,75,213,134]},"announce":[],"urlList":[]}}